<?xml version="1.0" encoding="UTF-8"?><svg id="_Слой_1" xmlns="http://www.w3.org/2000/svg" xmlns:xlink="http://www.w3.org/1999/xlink" viewBox="0 0 506 506"><defs><style>.cls-1{fill:url(#_Безымянный_градиент_244);}.cls-2{fill:url(#_Безымянный_градиент_244-2);}.cls-3{fill:url(#_Безымянный_градиент_38);}.cls-4{fill:url(#_Безымянный_градиент_336);}</style><linearGradient id="_Безымянный_градиент_38" x1="85.18" y1="333.36" x2="591.18" y2="333.36" gradientTransform="translate(-221.85 249.59) rotate(45) scale(1 -1)" gradientUnits="userSpaceOnUse"><stop offset=".17" stop-color="#e95d0c"/><stop offset=".83" stop-color="#be1823"/></linearGradient><linearGradient id="_Безымянный_градиент_244" x1="656.66" y1="-52.6" x2="730.13" y2="20.86" gradientTransform="translate(-233.78 -146.1) rotate(45) scale(1 -1)" gradientUnits="userSpaceOnUse"><stop offset="0" stop-color="#f6f6f6"/><stop offset="1" stop-color="#999a9a"/></linearGradient><linearGradient id="_Безымянный_градиент_244-2" x1="596.17" y1="-52.64" x2="522.72" y2="20.82" xlink:href="#_Безымянный_градиент_244"/><linearGradient id="_Безымянный_градиент_336" x1="101.74" y1="101.73" x2="404.29" y2="404.28" gradientUnits="userSpaceOnUse"><stop offset="0" stop-color="#bfbfbf"/><stop offset=".17" stop-color="#f6f6f6"/><stop offset=".83" stop-color="#dadada"/><stop offset="1" stop-color="#959696"/></linearGradient></defs><circle class="cls-3" cx="253" cy="253" r="253"/><path class="cls-1" d="M276.13,381.39c-22.46,4.17-45.81,2.37-67.51-5.39-15.8-5.65-20.47-25.73-8.6-37.6h0c6.23-6.23,15.5-8.3,23.79-5.32,22.78,8.2,48.38,6.27,69.83-5.8l3.61,3.61c-10.79,15.42-17.84,32.67-21.12,50.49h0Z"/><path class="cls-2" d="M167.59,306.01h0c-11.87,11.87-31.95,7.21-37.6-8.6-7.76-21.7-9.56-45.05-5.39-67.5,17.82-3.28,35.07-10.33,50.49-21.12l3.61,3.61c-12.06,21.44-14,47.05-5.8,69.83,2.98,8.29,.92,17.56-5.31,23.79h0Z"/><path class="cls-4" d="M343.89,162.12c-31.39-31.4-74.88-43.34-115.48-35.82-17.81,3.3-35.07,10.33-50.49,21.12-6.14,4.3-12.01,9.19-17.51,14.69s-11.73,10.21-18.29,13.89h0c-26.91,15.07-60.3,14.23-86.47-2.52-9.09-5.81-20.95-4.7-28.58,2.93-10.23,10.23-8.49,27.34,3.67,35.19,28.24,18.23,62,24.37,93.98,18.44,17.78-3.27,35-10.3,50.39-21.05l121.91,121.91c-10.79,15.42-17.84,32.67-21.11,50.48-5.93,31.97,.22,65.74,18.44,93.98,7.84,12.15,24.95,13.9,35.18,3.67v.02c7.63-7.63,8.75-19.5,2.93-28.58-16.78-26.21-17.59-59.67-2.45-86.59h0s8.32-12.76,13.87-18.31h0s.01,.02,.01,.02c5.5-5.5,10.39-11.37,14.69-17.51,10.79-15.42,17.83-32.68,21.12-50.49,7.53-40.59-4.41-84.07-35.8-115.47Zm-9.07,107.96c-2.38,12.2-17.53,16.7-26.32,7.91l-80.39-80.39h0c-8.85-8.85-4.28-24.07,8-26.44,26.54-5.13,55.06,2.59,75.62,23.14,20.59,20.59,28.28,49.2,23.1,75.78Z"/></svg>