<?xml version="1.0" encoding="UTF-8"?>
<svg id="_Слой_1" data-name=" Слой 1" xmlns="http://www.w3.org/2000/svg" xmlns:xlink="http://www.w3.org/1999/xlink" viewBox="0 0 506 506">
  <defs>
    <style>
      .cls-1 {
        fill: url(#_Безымянный_градиент);
      }

      .cls-2 {
        fill: url(#_Новый_образец_градиента_2-2);
      }

      .cls-3 {
        fill: url(#_Новый_образец_градиента_2);
      }
    </style>
    <linearGradient id="_Безымянный_градиент" data-name="Безымянный градиент" x1="578.73" y1="1366.17" x2="1084.73" y2="1366.17" gradientTransform="translate(630.91 -1301.15) rotate(45)" gradientUnits="userSpaceOnUse">
      <stop offset=".17" stop-color="#e95d0c"/>
      <stop offset=".83" stop-color="#be1823"/>
    </linearGradient>
    <linearGradient id="_Новый_образец_градиента_2" data-name="Новый образец градиента 2" x1="163.18" y1="115.25" x2="130.44" y2="171.96" gradientUnits="userSpaceOnUse">
      <stop offset="0" stop-color="#bfbfbf"/>
      <stop offset=".17" stop-color="#f6f6f6"/>
      <stop offset=".83" stop-color="#dadada"/>
      <stop offset="1" stop-color="#959696"/>
    </linearGradient>
    <linearGradient id="_Новый_образец_градиента_2-2" data-name="Новый образец градиента 2" x1="331.22" y1="87.63" x2="168.47" y2="369.54" xlink:href="#_Новый_образец_градиента_2"/>
  </defs>
  <circle class="cls-1" cx="253" cy="253" r="253"/>
  <g>
    <path class="cls-3" d="M154.53,133.69v14.12c0,3.61-2.94,6.55-6.55,6.55h-14.12l20.66-20.66m6.45-19.16c-.87,0-1.75,.32-2.47,1.04l-42.76,42.76c-2.22,2.22-.65,6.02,2.49,6.02h29.74c9.14,0,16.55-7.41,16.55-16.55v-29.74c0-2.13-1.74-3.53-3.55-3.53h0Z"/>
    <path class="cls-2" d="M364.74,119.55c3.61,0,6.55,2.94,6.55,6.55v110.16h-.2v10.31c0,32.81-11.51,65.09-33.28,93.35-20.65,26.8-49.95,49.4-84.91,65.56-34.97-16.16-64.26-38.76-84.91-65.56-21.77-28.25-33.28-60.53-33.28-93.35v-10.31h-10c-2.75,0-4.98-2.24-4.98-4.98v-42.37c0-3.61,2.94-6.55,6.55-6.55h29.72c14.64,0,26.55-11.91,26.55-26.55v-29.72c0-3.61,2.94-6.55,6.55-6.55h175.66m-134.99,91.46h-74.91l24.9,18.09,35.7,25.94-13.64,41.97-9.51,29.27,24.9-18.09,35.7-25.94,35.7,25.94,24.9,18.09-9.51-29.27-13.64-41.97,35.7-25.94,24.9-18.09h-74.91l-13.64-41.97-9.51-29.27-9.51,29.27-13.64,41.97m134.99-101.46H189.08c-9.14,0-16.55,7.41-16.55,16.55v29.72c0,9.14-7.41,16.55-16.55,16.55h-29.72c-9.14,0-16.55,7.41-16.55,16.55v42.37c0,8.27,6.71,14.98,14.98,14.98v.31c0,72.6,51.56,135.98,128.19,169.89,76.63-33.91,128.19-97.29,128.19-169.89v-.31h.2V126.1c0-9.14-7.41-16.55-16.55-16.55h0Zm-153.43,190.55l15.88-48.88-41.58-30.21h51.4l15.88-48.88,15.88,48.88h51.4l-41.58,30.21,15.88,48.88-41.58-30.21-41.58,30.21h0Z"/>
  </g>
</svg>