<?xml version="1.0" encoding="utf-8"?>
<!-- Generator: Adobe Illustrator 26.4.1, SVG Export Plug-In . SVG Version: 6.00 Build 0)  -->
<svg version="1.1" id="_Слой_1" xmlns="http://www.w3.org/2000/svg" xmlns:xlink="http://www.w3.org/1999/xlink" x="0px"
	 y="0px" viewBox="0 0 506 506" style="enable-background:new 0 0 506 506;" xml:space="preserve">
<style type="text/css">
	.st0{fill:url(#SVGID_1_);}
	.st1{fill:url(#SVGID_00000018951669183847935720000013868483672572387261_);}
	.st2{fill:url(#SVGID_00000165219865456406002470000006948412421020008613_);}
	.st3{fill:url(#SVGID_00000132062225492646425830000004030465727629146765_);}
</style>
<linearGradient id="SVGID_1_" gradientUnits="userSpaceOnUse" x1="85.1815" y1="333.3576" x2="591.1815" y2="333.3576" gradientTransform="matrix(0.7071 0.7071 0.7071 -0.7071 -221.8499 249.5889)">
	<stop  offset="0" style="stop-color:#F6F6F6"/>
	<stop  offset="1" style="stop-color:#DADADA"/>
</linearGradient>
<circle class="st0" cx="253" cy="253" r="253"/>
<linearGradient id="SVGID_00000109017723066863734200000011235125000955154866_" gradientUnits="userSpaceOnUse" x1="668.8531" y1="-60.2297" x2="722.455" y2="32.6236" gradientTransform="matrix(0.7071 0.7071 0.7071 -0.7071 -233.7798 -146.101)">
	<stop  offset="0" style="stop-color:#BE1823"/>
	<stop  offset="1" style="stop-color:#7E1714"/>
</linearGradient>
<path style="fill:url(#SVGID_00000109017723066863734200000011235125000955154866_);" d="M276.1,381.4c-22.5,4.2-45.8,2.4-67.5-5.4
	c-15.8-5.6-20.5-25.7-8.6-37.6l0,0c6.2-6.2,15.5-8.3,23.8-5.3c22.8,8.2,48.4,6.3,69.8-5.8l3.6,3.6
	C286.5,346.3,279.4,363.6,276.1,381.4L276.1,381.4L276.1,381.4L276.1,381.4z"/>
<linearGradient id="SVGID_00000175290922535500061050000002593512080002584733_" gradientUnits="userSpaceOnUse" x1="583.991" y1="-60.2611" x2="530.389" y2="32.5823" gradientTransform="matrix(0.7071 0.7071 0.7071 -0.7071 -233.7798 -146.101)">
	<stop  offset="0" style="stop-color:#E95D0C"/>
	<stop  offset="1" style="stop-color:#8E3B14"/>
</linearGradient>
<path style="fill:url(#SVGID_00000175290922535500061050000002593512080002584733_);" d="M167.6,306L167.6,306
	c-11.9,11.9-31.9,7.2-37.6-8.6c-7.8-21.7-9.6-45.1-5.4-67.5c17.8-3.3,35.1-10.3,50.5-21.1l3.6,3.6c-12.1,21.4-14,47.1-5.8,69.8
	C175.9,290.5,173.8,299.8,167.6,306L167.6,306L167.6,306z"/>
<linearGradient id="SVGID_00000107569280170906597650000001187741047730073244_" gradientUnits="userSpaceOnUse" x1="101.7423" y1="101.73" x2="404.2922" y2="404.2799">
	<stop  offset="0" style="stop-color:#BE4D10"/>
	<stop  offset="0.17" style="stop-color:#E95D0C"/>
	<stop  offset="0.83" style="stop-color:#BE1823"/>
	<stop  offset="1" style="stop-color:#A7181E"/>
</linearGradient>
<path style="fill:url(#SVGID_00000107569280170906597650000001187741047730073244_);" d="M343.9,162.1
	c-31.4-31.4-74.9-43.3-115.5-35.8c-17.8,3.3-35.1,10.3-50.5,21.1c-6.1,4.3-12,9.2-17.5,14.7c-5.5,5.5-11.7,10.2-18.3,13.9l0,0
	c-26.9,15.1-60.3,14.2-86.5-2.5c-9.1-5.8-20.9-4.7-28.6,2.9c-10.2,10.2-8.5,27.3,3.7,35.2c28.2,18.2,62,24.4,94,18.4
	c17.8-3.3,35-10.3,50.4-21.1L297,330.9c-10.8,15.4-17.8,32.7-21.1,50.5c-5.9,32,0.2,65.7,18.4,94c7.8,12.2,24.9,13.9,35.2,3.7v0
	c7.6-7.6,8.8-19.5,2.9-28.6c-16.8-26.2-17.6-59.7-2.5-86.6l0,0c0,0,8.3-12.8,13.9-18.3v0l0,0c5.5-5.5,10.4-11.4,14.7-17.5
	c10.8-15.4,17.8-32.7,21.1-50.5C387.2,237,375.3,193.5,343.9,162.1z M334.8,270.1c-2.4,12.2-17.5,16.7-26.3,7.9l-80.4-80.4h0
	c-8.9-8.8-4.3-24.1,8-26.4c26.5-5.1,55.1,2.6,75.6,23.1C332.3,214.9,340,243.5,334.8,270.1z"/>
</svg>
