<?xml version="1.0" encoding="UTF-8"?>
<svg id="_Слой_1" data-name=" Слой 1" xmlns="http://www.w3.org/2000/svg" xmlns:xlink="http://www.w3.org/1999/xlink" viewBox="0 0 506 506">
  <defs>
    <style>
      .cls-1 {
        fill: url(#_Новый_образец_градиента_1-5);
      }

      .cls-2 {
        fill: url(#_Новый_образец_градиента_1-12);
      }

      .cls-3 {
        fill: url(#_Новый_образец_градиента_1-2);
      }

      .cls-4 {
        fill: url(#_Новый_образец_градиента_1-10);
      }

      .cls-5 {
        fill: url(#_Новый_образец_градиента_1-3);
      }

      .cls-6 {
        fill: url(#_Безымянный_градиент);
      }

      .cls-7 {
        fill: url(#_Новый_образец_градиента_1-6);
      }

      .cls-8 {
        fill: url(#_Новый_образец_градиента_1-4);
      }

      .cls-9 {
        fill: url(#_Новый_образец_градиента_1);
      }

      .cls-10 {
        fill: url(#_Новый_образец_градиента_1-11);
      }

      .cls-11 {
        fill: url(#_Новый_образец_градиента_1-7);
      }

      .cls-12 {
        fill: url(#_Новый_образец_градиента_1-8);
      }

      .cls-13 {
        fill: url(#_Новый_образец_градиента_1-9);
      }
    </style>
    <linearGradient id="_Безымянный_градиент" data-name="Безымянный градиент" x1="578.73" y1="1366.17" x2="1084.73" y2="1366.17" gradientTransform="translate(630.91 -1301.15) rotate(45)" gradientUnits="userSpaceOnUse">
      <stop offset=".17" stop-color="#e95d0c"/>
      <stop offset=".83" stop-color="#be1823"/>
    </linearGradient>
    <linearGradient id="_Новый_образец_градиента_1" data-name="Новый образец градиента 1" x1="253.37" y1="370.65" x2="311.84" y2="429.12" gradientUnits="userSpaceOnUse">
      <stop offset="0" stop-color="#bfbfbf"/>
      <stop offset=".17" stop-color="#f6f6f6"/>
      <stop offset=".83" stop-color="#dadada"/>
      <stop offset="1" stop-color="#959696"/>
    </linearGradient>
    <linearGradient id="_Новый_образец_градиента_1-2" data-name="Новый образец градиента 1" x1="244.68" y1="334.49" x2="271.28" y2="361.08" xlink:href="#_Новый_образец_градиента_1"/>
    <linearGradient id="_Новый_образец_градиента_1-3" data-name="Новый образец градиента 1" x1="292.03" y1="329.46" x2="322.55" y2="359.98" xlink:href="#_Новый_образец_градиента_1"/>
    <linearGradient id="_Новый_образец_градиента_1-4" data-name="Новый образец градиента 1" x1="212.59" y1="208.03" x2="256.53" y2="251.97" xlink:href="#_Новый_образец_градиента_1"/>
    <linearGradient id="_Новый_образец_градиента_1-5" data-name="Новый образец градиента 1" x1="312.26" y1="208.71" x2="348.88" y2="245.33" xlink:href="#_Новый_образец_градиента_1"/>
    <linearGradient id="_Новый_образец_градиента_1-6" data-name="Новый образец градиента 1" x1="159.16" y1="102.49" x2="246.75" y2="190.07" xlink:href="#_Новый_образец_градиента_1"/>
    <linearGradient id="_Новый_образец_градиента_1-7" data-name="Новый образец градиента 1" x1="393.55" y1="246.04" x2="313.1" y2="106.69" xlink:href="#_Новый_образец_градиента_1"/>
    <linearGradient id="_Новый_образец_градиента_1-8" data-name="Новый образец градиента 1" x1="223.5" y1="234.32" x2="243.15" y2="253.97" xlink:href="#_Новый_образец_градиента_1"/>
    <linearGradient id="_Новый_образец_градиента_1-9" data-name="Новый образец градиента 1" x1="312.64" y1="233.38" x2="332.67" y2="253.41" xlink:href="#_Новый_образец_градиента_1"/>
    <linearGradient id="_Новый_образец_градиента_1-10" data-name="Новый образец градиента 1" x1="265.88" y1="263.95" x2="310.01" y2="308.08" xlink:href="#_Новый_образец_градиента_1"/>
    <linearGradient id="_Новый_образец_градиента_1-11" data-name="Новый образец градиента 1" x1="254.71" y1="308.04" x2="269.56" y2="322.89" xlink:href="#_Новый_образец_градиента_1"/>
    <linearGradient id="_Новый_образец_градиента_1-12" data-name="Новый образец градиента 1" x1="299.02" y1="310.68" x2="305.46" y2="317.12" xlink:href="#_Новый_образец_градиента_1"/>
  </defs>
  <circle class="cls-6" cx="253" cy="253" r="253"/>
  <g>
    <path class="cls-9" d="M233.93,390.1c4.09-1.15,9.32-1.89,12.6,.9,1.71,1.45,1.69,2.85,3.45,4.65,1.9,1.95,4.94,3.44,12.45,3.6,9.84,.21,12.28-2.19,20.1-2.4,8.08-.22,10.75,2.21,16.35,2.85,7.26,.84,17.99-1.49,32.7-16.2-1.08,1.02-2.55,2.71-3.15,5.1-1.21,4.84,2.28,8.09,3.15,12.15,1.59,7.46-6.23,15.02-13.35,21.9-9.9,9.57-16.67,16.12-27.9,18.3-8.86,1.72-19.61-2.9-41.1-12.15-3.37-1.45-8.72-3.87-10.65-9-1.28-3.4-.32-6.02,0-9.75,.4-4.61-.14-11.31-4.65-19.95Z"/>
    <path class="cls-3" d="M225.23,353.95c5.53-.87,13-2.96,19.5-8.55,6.09-5.24,5.43-8.5,11.55-12.3,6.93-4.31,17.51-6.17,24.3-1.35,1.35,.96,2.28,1.98,2.85,2.7,.54,1.46,2.44,7.08-.15,13.05-2.96,6.83-9.6,9.13-11.04,9.63-4.09,1.42-5.3,.26-12.96,1.02-7.09,.71-8.72,1.97-12.75,2.4-4.87,.52-11.96-.29-21.3-6.6Z"/>
    <path class="cls-5" d="M290.33,331.75c-1.94,1.2-3.25,2.61-4.05,3.6,.07,1.78,.43,4.6,1.95,7.65,.39,.79,2.24,4.35,6.3,7.2,2.5,1.75,4.83,2.52,6,2.85,2.29,.64,3.62,.56,5.55,.75,5.27,.53,7.37,2.35,10.2,3,3.21,.73,8.15,.13,15.6-6.15-1.79-.34-4.39-1.04-7.05-2.7-5.77-3.59-5.26-7.51-10.8-12.45-1.49-1.32-7.02-6.12-14.55-6.15-1.53,0-5.31,.03-9.15,2.4Z"/>
    <path class="cls-8" d="M276.83,230.35c-6.93-2.92-16.75-6.78-28.8-10.65-19.37-6.22-24.71-6.1-27.6-5.85-5.08,.45-16.46,2.52-28.8,15.15,6.05,3.65,12.1,7.3,18.15,10.95,3.56-7,8.37-9.87,10.41-10.9,10.48-5.3,22.44-.16,25.14,1,3.28,1.41,3.66,2.19,9,4.5,6.94,3.01,10.49,4.49,14.25,3.45,1.29-.36,5.16-1.71,8.25-7.65Z"/>
    <path class="cls-1" d="M293.48,229c-.52-1.93,3.45-5.18,7.65-6.75,3.18-1.19,4.79-.78,7.5-1.2,7.56-1.18,8.4-6.49,15.15-9.3,8.97-3.74,19.36,.7,21.15,1.5,6.93,3.11,12.01,8.8,16.05,6.75,.58-.29,.97-.66,1.2-.9,.26,.36,4.41,6.2,2.1,10.5-2.16,4.02-8.46,3.94-11.7,3.9-9.37-.11-10.24-4.85-18-5.4-2.66-.19-9.53,2.07-23.25,6.6-3.17,1.04-9.61,3.2-12,.6-.84-.92-1.09-2.34-3-4.05-1.7-1.53-2.62-1.39-2.85-2.25Z"/>
    <path class="cls-7" d="M155.18,281.65c-8.88-9.86-11.02-18.04-10.8-24.3,.14-4.01,1.2-5.76,1.2-9.6,0-9.3-6.21-17.16-12.9-23.1,5.21,2.48,10.99,4.79,12.11,3.26,.53-.72-.02-2.21-.82-3.11-2.14-2.4-5.68-.08-10.05-1.76-2.94-1.13-6.59-4.21-6.45-7.99,.15-4.01,4.49-6.43,4.91-6.66,12.39,5.68,15.55,6.32,15.92,5.68,.44-.77-2.71-4.21-6.86-5.91-4.38-1.79-6.48-.25-9.96-2.36-2.87-1.75-5.19-5.09-4.39-6.69,.75-1.49,3.85-.79,7.48-.9,10.13-.3,21.45-6.81,23.91-15.36,.36-1.24,.75-3.29,.34-6.08-.47,2.61-1.75,7.39-5.68,11.53-2.82,2.97-7.52,4.34-16.93,7.09-1.25,.37-3.31,.94-4.39-.07-1.23-1.16-.5-3.76-.28-4.59,1.65-6.33-.65-8.28,.51-19.12,.88-8.23,3.12-15.64,6.64-25.26,7.08-19.34,10.62-29.01,15.97-37.12,12.37-18.74,29.78-27.33,40.05-32.4,42.75-21.12,82.68-9.77,109.06-2.27,12.44,3.54,21.27,7.54,23.69,15.32,2.72,8.72-3.49,19.4-10.8,24.98-2.07,1.58-5.29,3.55-20.7,6.08-22.81,3.74-34.22,5.61-45.84,1.86-4.15-1.34-8.7-3.43-16.71-4.78-5.67-.95-7.17-.54-12.94-1.86-6.9-1.58-12.25-3.88-13.78-4.56-6.85-3.03-11.06-6.14-11.53-5.51-.39,.51,2.09,3.02,2.55,3.45,6.88,6.44,22.73,9.7,31.88,11.18-8.97,.96-15.35,3.8-19.46,6.19-3.55,2.06-4.9,3.49-19.12,18.23-10.8,11.19-12.21,12.63-13.28,16.09-1.34,4.36-.26,5.87,1.35,19.69,1.51,12.9,2.24,19.48,1.24,25.99-.57,3.71-2.74,8.96-7.09,19.46-8.61,20.8-10.6,21.32-10.8,28.01-.21,6.83,1.74,10.38-.56,16.99-1.68,4.81-4.55,8.22-6.67,10.31Z"/>
    <path class="cls-11" d="M367.73,260.95c4.45-3.62,9.85-9.29,11.1-17.1,1.06-6.61-1.59-10.14-3.75-20.85-1.41-6.97-1.54-12.95-1.8-24.9-.36-16.54,.85-28.27,1.05-31.5,.82-13.5-6.55-35.01-44.7-69.45-.03,1.62-.24,3.46-.79,5.44-2.13,7.71-7.96,12.12-10.43,13.76,2.65,1.04,6.45,2.75,10.61,5.48,18.99,12.4,25.69,32.76,28.01,40.16,4.71,14.99,.55,15.65,6.98,48.71,1.2,6.18,2,9.51,2.81,15.75,1.89,14.43,1.53,26.45,.9,34.5Z"/>
    <path class="cls-12" d="M212.85,244.97c4.03-2.02,8.05-4.05,12.08-6.08-.23,.29-1.79,2.29-1.2,4.65,.6,2.37,2.93,3.34,3.9,3.75,2.23,.93,4.24,.56,6.45,.15,2.67-.49,4.31-.8,5.4-2.18,2.12-2.67,.22-6.96,.08-7.27,2.14,.45,4.61,1.11,7.27,2.1,2.71,1.01,5.04,2.14,6.98,3.23-1.7-1.65-4.63-4.07-8.85-5.77-9.02-3.64-17.14-1.22-19.35-.53-6.43,2.02-10.64,5.75-12.75,7.95Z"/>
    <path class="cls-13" d="M302.4,243.62c.05,.09,8.08-6.61,17.4-7.8,5.49-.7,13.17,.29,23.1,7.35-2.34-1.22-5.28-2.51-8.78-3.53-2.64-.77-5.08-1.23-7.2-1.5,.23,1,.52,2.96-.38,4.95-1.65,3.65-6.57,5.79-10.65,4.2-4.29-1.68-5.2-6.54-5.25-6.83-1,.16-2.23,.44-3.6,.9-2.78,.95-4.67,2.21-4.65,2.25Z"/>
    <path class="cls-4" d="M286.58,243.25c3.6,22.6,7.2,45.2,10.8,67.8,2.36,4.62,.76,10.16-3.3,12.6-3.49,2.1-8.22,1.54-11.4-1.5,.98,.31,2.42,.66,4.19,.74,1.9,.09,6.32,.28,8.49-2.19,2.14-2.45,1.83-7.21-1.04-11.39-2.58-22.02-5.16-44.04-7.74-66.06Z"/>
    <path class="cls-10" d="M255.6,307.15c-2.51,4.15-2.25,8.63,0,10.57,1.7,1.47,4.52,1.47,6.38,.98,2.69-.72,3.17-2.41,5.18-2.55,1.23-.09,3.12,.41,5.62,3.52-.66-3.35-1.83-4.49-2.85-4.88-2.11-.79-3.68,1.65-7.8,1.8-1.13,.04-4,.14-5.78-1.73-1.68-1.77-1.87-4.79-.75-7.72Z"/>
    <path class="cls-2" d="M301.35,308.35c2.2,1.35,3.39,3.84,3.04,6.3-.48,3.32-3.51,4.75-3.71,4.84,.57-.03,2.71-.2,4.33-1.91,1.45-1.52,2.52-4.31,1.18-6.64-1.46-2.54-4.68-2.59-4.84-2.59Z"/>
  </g>
</svg>